#!OML:ASF F:\VICON\USERDATA\INSTALL\rory3\rory3.ASF
:FULLY-SPECIFIED
:DEGREES
1
root 0.5544291817504223 17.15801945825604 -30.249538487287772 0.4472898233566683 4.4718297343581375 1.763635421912571
lfemur 21.57295240680388 -4.9521931295968225 -28.014772831559437
ltibia 24.462564160915246
lfoot -12.989004913733499 -7.973254413492866
ltoes -14.773165507137243
rfemur -36.882765334889044 3.96351292614277 20.80656144029117
rtibia 31.803414746010088
rfoot -1.6597163331958251 -12.780028333029657
rtoes -2.6217509719607435
lowerback 11.592141035089373 -1.9406386936600004 -5.212376047105151
upperback -0.3599456248265529 -3.1294992707477096 1.8285934713363177
thorax -6.5112958432285035 -1.3110559447157117 6.016770931524688
lowerneck -19.043129287155164 -1.6087257920664761 -2.003283654842383
upperneck 17.533993993302094 -1.4275659157637248 0.5024348043351117
head 8.633527302740404 -0.7945826545764014 0.1290730082514509
lclavicle -2.2630160708084662e-15 6.838100439877708e-16
lhumerus -28.99933164620397 -8.540485512290118 87.76970790620386
lradius 74.63057710287623
lwrist 20.581348210030615
lhand -31.406326845957942 14.752882887478554
lfingers 7.125019999999999
lthumb -4.675084406037607 44.65084029220394
rclavicle -2.2630160708084662e-15 6.838100439877708e-16
rhumerus -48.734618742906505 -5.939323730310801 -85.89081066578183
rradius 67.65033028464822
rwrist -2.6416086137873283
rhand -16.983673830977764 31.24705254045465
rfingers 7.125019999999999
rthumb 9.25105609910595 1.4708906837164373
2
root 0.5027770925236709 17.398157572389273 -29.132433883882456 -0.04118174470746805 3.5486890371885256 -0.6492900712520076
lfemur 18.926255871638016 -6.09957688477309 -25.367068655908135
ltibia 36.61461242128846
lfoot -4.600886374544459 -11.810718720652654
ltoes -19.135463680510565
rfemur -34.371339262314734 4.094357049684776 24.267216813590778
rtibia 34.808255019675215
rfoot 2.778305600195333 -8.662517979713504
rtoes -2.7401482811306694
lowerback 11.86415116889224 -1.812131490782963 -2.2632255322065316
upperback -0.7903698423233276 -2.579759910782346 2.861987517350714
thorax -7.217724214554177 -1.0906627110396392 5.006341162475836
lowerneck -18.523722827907417 -2.4340846777194067 -2.447981439324862
upperneck 18.91170689676737 -2.1571552818743265 0.29199060028513624
head 8.945186522217544 -1.3579150724067197 0.09630086562502338
lclavicle -2.2630160893468778e-15 6.838100758800789e-16
lhumerus -31.42228076849644 -7.2224807401619255 89.10788969805971
lradius 74.6829456743969
lwrist 20.88839122066329
lhand -31.632979711199667 14.531039240967907
lfingers 7.125019999999999
lthumb -4.893887265796446 44.423326220147295
rclavicle -2.2630160893468778e-15 6.838100758800789e-16
rhumerus -50.84457480418389 -8.865407666872601 -82.8191180019376
rradius 64.41034374207129
rwrist -0.21828082864430032
rhand -16.448125833153007 32.13609450978385
rfingers 7.125019999999999
rthumb 9.767754148501773 2.367820928445945
3
root 0.4440112247293837 17.666285900388814 -28.04300643121607 -0.16069539582968062 3.1098341694041585 -0.9230015563932381
lfemur 12.624232522433772 -3.4987801211274823 -23.74856857556791
ltibia 50.24940260534651
lfoot 14.63931615392252 -16.784409340721606
ltoes -18.288844871689136
rfemur -32.16243953031612 1.257771245219565 25.471040057595125
rtibia 39.67681108153156
rfoot 2.365225480263242 -5.080354055410595
rtoes 1.676421149686676
lowerback 11.929470535198234 -1.7334252895182938 -1.8750708076289657
upperback -1.0792486162795134 -2.41058580980334 3.19191359226848
thorax -7.512516749216019 -1.0110751030004352 5.062929487318726
lowerneck -19.148088826388246 -2.208254687898436 -2.6946245389110053
upperneck 19.030622891437446 -1.667026150226088 0.3281916579475803
head 9.05271709173994 -1.14837452677561 0.1830989928272245
lclavicle -2.263016158111033e-15 6.838100958128018e-16
lhumerus -35.71436710612086 -5.5270335175209535 89.98559454825669
lradius 75.01900488624045
lwrist 21.018889334698713
lhand -31.149172347109474 7.230727974483808
lfingers 7.125019999999999
lthumb -4.426826179499436 37.148281553986784
rclavicle -2.263016158111033e-15 6.838100958128018e-16
rhumerus -51.730361989895684 -11.022338524269566 -80.42126336317374
rradius 62.32066177072771
rwrist 1.7616161493702918
rhand -16.306559541410845 31.140974141416578
rfingers 7.125019999999999
rthumb 9.90436065474178 1.3830568150277853
4
root 0.3754717936581202 17.95707296166654 -27.028880776055622 -0.3414450849652757 3.0729596309008382 -3.15558457988618
lfemur 3.4947327422351755 -1.471190291497784 -19.55812393998748
ltibia 65.69543640246297
lfoot 28.757906819471494 -19.811138758085086
ltoes 9.281643960726987
rfemur -27.27626897569715 0.611769511386635 28.8815165446571
rtibia 39.270071710336936
rfoot 1.789463819872433 -3.7889383257852667
rtoes 10.841847370607999
lowerback 12.24526904409895 -1.5159560233890033 0.8713181588762051
upperback -1.098977376236304 -1.7542643739370223 3.7443639285817825
thorax -7.859525895964778 -0.766693664495719 3.667169327494176
lowerneck -18.41033958256093 -2.837334444629412 -2.328202705098422
upperneck 18.150897130213966 -2.8681453314166907 0.46063596695422104
head 8.73501788086914 -1.6540674176105896 0.09074108836046146
lclavicle -2.2630161055458832e-15 6.838100838531024e-16
lhumerus -37.76436140079364 -8.169925208523283 91.57764801421507
lradius 75.16788302605937
lwrist 22.88388108853638
lhand -29.30870993539483 9.169643969559688
lfingers 7.125019999999999
lthumb -2.6496718649234667 39.12221258933612
rclavicle -2.2630161055458832e-15 6.838100838531024e-16
rhumerus -52.101614889631016 -10.20540266321257 -80.8928219794698
rradius 62.86462229191733
rwrist 0.2312583808595754
rhand -16.855462849110783 31.199554750276675
rfingers 7.125019999999999
rthumb 9.374761809774368 1.4269613268608525
5
root 0.31980994168584065 18.21409407397362 -26.090160578141713 -0.6246296641180136 2.220783891010919 -4.308665719443662
lfemur -5.254955005260242 1.9482598312726158 -17.096762699153413
ltibia 78.49707398923076
lfoot 21.929521700501482 -16.491968327088102
ltoes 2.167811834504599
rfemur -22.136387419170802 1.969973050273042 30.87910792394573
rtibia 38.0670751710682
rfoot -0.10712351190309533 -4.447616271597399
rtoes 12.758398402204666
lowerback 12.946115167133879 -0.9572193586896662 2.3673339844646977
upperback -0.5439757937349945 -0.7907705057215026 3.8680227141645753
thorax -7.823469340042432 -0.3580414044808735 2.630845011658824
lowerneck -18.835905813529447 -3.340639546955594 -2.225522663134528
upperneck 18.09586162670691 -3.8565488683979963 0.9789933719830691
head 8.781126259173366 -2.0098924387196413 0.17856605744687346
lclavicle -2.2630160302666174e-15 6.838100293703903e-16
lhumerus -37.55632518715992 -9.815614955999557 92.77202295333696
lradius 72.67466811332923
lwrist 20.20887292991809
lhand -27.59409122159244 11.240901319096555
lfingers 7.125019999999999
lthumb -0.9938317461099739 41.21195012051543
rclavicle -2.2630160302666174e-15 6.838100293703903e-16
rhumerus -48.4963980197503 -10.310506272967082 -81.73549666840438
rradius 61.954337779880206
rwrist 0.7735121296068033
rhand -15.130624370895184 34.675726297883045
rfingers 7.125019999999999
rthumb 11.03893296234531 4.927121486347603
6
root 0.28793094891342547 18.3884774503616 -25.197605385782637 -1.25375155873476 1.202699363125762 -4.646773926081751
lfemur -12.926448192881738 4.676805650677652 -16.299589732541726
ltibia 85.90372845622295
lfoot 11.222932651145488 -11.779038982038083
ltoes -11.609370067124502
rfemur -17.00652528897627 2.9901018443517016 31.78464194948687
rtibia 37.306061331966326
rfoot -1.7673583426246915 -4.401382438213819
rtoes 10.180915999000696
lowerback 13.854906831345815 -0.5470671816116552 2.732330591309063
upperback -0.5895836048074162 -0.14387705866591594 4.007027976812824
thorax -8.301377465817117 -0.06750144356506771 2.4318717982293796
lowerneck -15.862164901621709 -3.1345636803122616 -2.365283575425223
upperneck 17.770141253595128 -3.5277320987014535 0.8542791042590867
head 8.353747520931082 -1.9187314921572616 0.21650336113447233
lclavicle -2.263016065566642e-15 6.838100825243199e-16
lhumerus -40.390984567057494 -8.066492307459043 93.06874216203765
lradius 71.20309826531995
lwrist 17.68642473472355
lhand -26.22957074468297 15.26348759775956
lfingers 7.125019999999999
lthumb 0.3240130585188181 45.23564992566583
rclavicle -2.263016065566642e-15 6.838100825243199e-16
rhumerus -45.561757290603204 -8.760402498035603 -82.49305607026872
rradius 62.28121777110576
rwrist 2.38399710183772
rhand -14.28456518590805 31.20888764445281
rfingers 7.125019999999999
rthumb 11.855046033077855 1.5087442532599151
7
root 0.27431133675507746 18.51909836944261 -24.32175902296168 -0.8443281006823631 0.4114246430980313 -4.866754864284926
lfemur -20.780621358777765 5.601682742081962 -16.16213614604695
ltibia 87.81673891034434
lfoot 5.348873240147116 -9.485405909192052
ltoes -7.444741618921442
rfemur -13.672429822628864 3.560142512983391 32.47619770970237
rtibia 37.522282135934816
rfoot -4.154189362040789 -4.1866566704217885
rtoes 10.52611173755679
lowerback 13.378055438463072 0.24999104846650422 3.6628385671201373
upperback 0.5293004070431164 0.9904472372447958 3.3361801346995748
thorax -7.160611033144472 0.43669604254123845 0.9216162738794009
lowerneck -20.263389073745852 -4.011131787906275 -1.504529411997852
upperneck 19.304817657325316 -5.108361011705712 0.6968867763744329
head 9.245537723732532 -2.5545708459710097 -0.16594033541546083
lclavicle -2.2630161155258738e-15 6.838100559473886e-16
lhumerus -39.659167314255235 -8.404572451937861 92.8728485322868
lradius 69.59836151501352
lwrist 19.395946132318514
lhand -27.814317409845312 9.843854916218723
lfingers 7.125019999999999
lthumb -1.206515167682437 39.81518926141888
rclavicle -2.2630161155258738e-15 6.838100559473886e-16
rhumerus -39.38077784311659 -7.4617013571438715 -85.41960032146585
rradius 62.615091448911315
rwrist 0.1496858343069314
rhand -15.812412946499617 24.47878448670878
rfingers 7.125019999999999
rthumb 10.381141132954783 -5.221485333943655
